<svg version="1.0" xmlns="http://www.w3.org/2000/svg"
 width="26px" height="26px" viewBox="0 0 496.000000 512.000000"
 preserveAspectRatio="xMidYMid meet">

<g transform="translate(0.000000,512.000000) scale(0.100000,-0.100000)"
fill="#000000" stroke="none">
<path d="M2200 5029 c-323 -32 -645 -126 -920 -270 -770 -403 -1242 -1166
-1277 -2064 -34 -897 396 -1732 1143 -2222 124 -81 372 -204 492 -243 94 -31
102 -32 143 -19 24 8 51 26 63 42 20 27 21 42 24 358 l3 330 -68 -8 c-124 -14
-351 -8 -428 11 -98 25 -184 68 -244 122 -42 38 -63 70 -125 197 -82 169 -151
267 -217 312 -84 56 -120 87 -136 118 -15 29 -14 32 7 49 28 23 97 24 171 2
132 -39 233 -119 320 -254 55 -86 145 -177 204 -208 132 -66 316 -69 473 -7
37 15 40 20 56 83 22 90 66 181 111 230 l36 41 -33 5 c-18 3 -87 12 -153 21
-324 44 -514 119 -667 263 -171 162 -253 392 -265 742 -9 296 35 439 188 614
l41 47 -16 57 c-48 175 -40 368 25 570 l21 62 57 0 c31 0 90 -9 131 -21 92
-25 283 -117 405 -194 l90 -58 80 17 c399 84 741 85 1085 3 l95 -23 85 54
c120 76 286 158 391 193 69 23 104 29 152 27 l62 -3 23 -64 c56 -158 67 -403
25 -551 l-19 -66 59 -69 c175 -208 220 -381 186 -721 -37 -365 -187 -612 -457
-748 -114 -58 -310 -109 -522 -135 -47 -6 -100 -14 -118 -17 l-33 -5 35 -43
c20 -23 49 -72 66 -107 56 -120 60 -170 60 -702 0 -464 1 -483 20 -515 41 -68
113 -69 275 -6 390 154 722 399 1003 741 85 103 214 308 287 457 118 239 200
508 241 791 22 151 25 525 6 665 -80 560 -304 1014 -691 1400 -381 380 -858
616 -1416 701 -151 23 -487 33 -635 18z"/>
<path d="M865 1670 c-10 -16 15 -40 41 -40 26 0 31 19 12 38 -15 15 -45 16
-53 2z"/>
<path d="M973 1589 c-25 -25 17 -76 51 -63 22 8 20 30 -4 54 -23 23 -32 24
-47 9z"/>
<path d="M1069 1454 c-19 -23 8 -69 41 -69 31 0 38 27 16 60 -19 29 -38 32
-57 9z"/>
<path d="M1192 1318 c-33 -33 9 -85 66 -79 22 2 13 49 -14 70 -31 24 -36 25
-52 9z"/>
<path d="M1368 1209 c-10 -5 -18 -19 -18 -29 0 -42 92 -55 98 -14 5 34 -47 62
-80 43z"/>
<path d="M1760 1190 c-39 -39 16 -78 65 -46 30 20 32 41 6 56 -29 15 -49 12
-71 -10z"/>
<path d="M1560 1165 c-32 -38 42 -73 85 -41 16 12 18 18 9 33 -15 24 -76 29
-94 8z"/>
</g>
</svg>
