<svg version="1.0" xmlns="http://www.w3.org/2000/svg"
 width="26px" height="26px" viewBox="0 0 512.000000 512.000000"
 preserveAspectRatio="xMidYMid meet">

<g transform="translate(0.000000,512.000000) scale(0.100000,-0.100000)"
fill="#000000" stroke="none">
<path d="M3921 5104 c-122 -33 -159 -61 -478 -378 -167 -165 -303 -304 -303
-310 0 -14 1262 -1276 1276 -1276 6 0 146 136 311 303 274 276 303 308 337
378 70 142 72 286 7 426 -29 62 -63 99 -389 426 -323 324 -364 361 -427 393
-111 54 -225 67 -334 38z"/>
<path d="M1512 2797 l-1383 -1383 -66 -596 c-77 -688 -77 -655 11 -744 89 -88
56 -87 744 -12 l595 66 1383 1383 c761 761 1384 1388 1384 1394 0 13 -1262
1275 -1275 1275 -6 0 -632 -622 -1393 -1383z"/>
</g>
</svg>
